<svg width="12" height="22" viewBox="0 0 12 22" fill="none" xmlns="http://www.w3.org/2000/svg">
<path d="M2.37686 0.597945L11.6618 9.85531C11.772 9.96552 11.8499 10.0849 11.8954 10.2135C11.9417 10.3421 11.9648 10.4798 11.9648 10.6268C11.9648 10.7737 11.9417 10.9115 11.8954 11.04C11.8499 11.1686 11.772 11.288 11.6618 11.3982L2.37686 20.6831C2.11971 20.9403 1.79827 21.0688 1.41255 21.0688C1.02683 21.0688 0.696207 20.9311 0.420691 20.6556C0.145173 20.3801 0.00741491 20.0586 0.00741494 19.6913C0.00741497 19.3239 0.145173 19.0025 0.420691 18.727L8.52088 10.6268L0.420692 2.52656C0.163542 2.26941 0.0349681 1.95275 0.0349682 1.57658C0.0349682 1.19967 0.172726 0.873462 0.448243 0.597945C0.72376 0.322429 1.0452 0.18467 1.41255 0.18467C1.77991 0.184671 2.10134 0.322429 2.37686 0.597945Z" fill="black"/>
</svg>
