<svg width="36" height="36" viewBox="0 0 36 36" fill="none" xmlns="http://www.w3.org/2000/svg">
<path d="M4.5 36C3.2625 36 2.2035 35.5975 1.323 34.7925C0.441 33.9861 0 33.0171 0 31.8857V13.3714C0 12.72 0.15975 12.1029 0.47925 11.52C0.79725 10.9371 1.2375 10.4571 1.8 10.08L15.3 0.822857C15.7125 0.548572 16.1437 0.342857 16.5938 0.205714C17.0438 0.0685712 17.5125 0 18 0C18.4875 0 18.9562 0.0685712 19.4062 0.205714C19.8563 0.342857 20.2875 0.548572 20.7 0.822857L34.2 10.08C34.7625 10.4571 35.2035 10.9371 35.523 11.52C35.841 12.1029 36 12.72 36 13.3714V31.8857C36 33.0171 35.5597 33.9861 34.6792 34.7925C33.7972 35.5975 32.7375 36 31.5 36H22.5V21.6H13.5V36H4.5Z" fill="#528DFF"/>
</svg>
