<svg width="393" height="852" viewBox="0 0 393 852" fill="none" xmlns="http://www.w3.org/2000/svg">
<g clip-path="url(#clip0_542_920)">
<rect width="393" height="852" fill="white"/>
<path d="M0 89C0 75.1929 11.1929 64 25 64H368C381.807 64 393 75.1929 393 89V852H0V89Z" fill="#B4CEFF"/>
<path d="M42.5415 670.136C77.6344 640.79 129.873 645.448 159.219 680.541L262.931 804.564C292.277 839.657 287.618 891.895 252.525 921.241V921.241C217.432 950.587 165.194 945.928 135.848 910.835L32.1357 786.813C2.78971 751.72 7.44852 699.482 42.5415 670.136V670.136Z" fill="url(#paint0_linear_542_920)"/>
<path d="M297.541 191.136C332.634 161.79 384.873 166.448 414.219 201.541L517.931 325.564C547.277 360.657 542.618 412.895 507.525 442.241V442.241C472.432 471.587 420.194 466.928 390.848 431.835L287.136 307.813C257.79 272.72 262.449 220.482 297.541 191.136V191.136Z" fill="url(#paint1_linear_542_920)"/>
<rect x="6.28052" y="362" width="330.578" height="167.222" rx="83.6112" transform="rotate(50.0964 6.28052 362)" fill="url(#paint2_linear_542_920)"/>
</g>
<defs>
<linearGradient id="paint0_linear_542_920" x1="12.1243" y1="613.636" x2="222.108" y2="864.741" gradientUnits="userSpaceOnUse">
<stop stop-color="white" stop-opacity="0.6"/>
<stop offset="1" stop-color="#528DFF" stop-opacity="0"/>
</linearGradient>
<linearGradient id="paint1_linear_542_920" x1="267.124" y1="134.636" x2="477.108" y2="385.741" gradientUnits="userSpaceOnUse">
<stop stop-color="white" stop-opacity="0.6"/>
<stop offset="1" stop-color="#528DFF" stop-opacity="0"/>
</linearGradient>
<linearGradient id="paint2_linear_542_920" x1="118.54" y1="273.742" x2="336.858" y2="445.611" gradientUnits="userSpaceOnUse">
<stop stop-color="#528DFF" stop-opacity="0"/>
<stop offset="0.31" stop-color="#8BB3FF" stop-opacity="0"/>
<stop offset="1" stop-color="white" stop-opacity="0.6"/>
</linearGradient>
<clipPath id="clip0_542_920">
<rect width="393" height="852" fill="white"/>
</clipPath>
</defs>
</svg>
