<svg width="24" height="23" viewBox="0 0 24 23" fill="none" xmlns="http://www.w3.org/2000/svg">
<path fill-rule="evenodd" clip-rule="evenodd" d="M0.939396 21.4697C0.646503 21.7626 0.646503 22.2374 0.939396 22.5303C1.23229 22.8232 1.70716 22.8232 2.00006 22.5303L6.31874 18.2116C7.75426 19.1478 9.48948 19.8303 11.5 19.8303C14.8821 19.8303 17.4852 17.8991 19.193 16.0774C20.0542 15.1588 20.7119 14.2432 21.1545 13.558C21.3762 13.2147 21.5452 12.9271 21.6599 12.7233C21.7173 12.6213 21.7611 12.54 21.7913 12.4831C21.8064 12.4546 21.818 12.4321 21.8263 12.4161L21.836 12.3971L21.8389 12.3913L21.8399 12.3893L21.8403 12.3886C21.8404 12.3883 21.8405 12.388 21.125 12.0303L21.8405 12.388C21.9532 12.1628 21.9532 11.8977 21.8405 11.6725L21.125 12.0303C21.8405 11.6725 21.8404 11.6722 21.8403 11.6719L21.8399 11.6712L21.8389 11.6693L21.836 11.6635L21.8263 11.6444C21.818 11.6284 21.8064 11.606 21.7913 11.5775C21.7611 11.5205 21.7173 11.4393 21.6599 11.3373C21.5452 11.1334 21.3762 10.8459 21.1545 10.5025C20.7119 9.81732 20.0542 8.90175 19.193 7.98312C18.7889 7.55206 18.3346 7.11487 17.8318 6.69858L23.0001 1.53033C23.2929 1.23744 23.2929 0.762564 23.0001 0.469671C22.7072 0.176777 22.2323 0.176778 21.9394 0.469671L16.6077 5.80134C15.1866 4.88968 13.4763 4.23027 11.5 4.23027C8.11789 4.23027 5.51483 6.16142 3.807 7.98312C2.94578 8.90175 2.28806 9.81732 1.84555 10.5025C1.62379 10.8459 1.45478 11.1334 1.34009 11.3373C1.28272 11.4393 1.23886 11.5205 1.2087 11.5775C1.19362 11.606 1.18196 11.6284 1.17375 11.6444L1.16401 11.6635L1.16109 11.6693L1.16011 11.6712L1.15974 11.6719C1.15959 11.6722 1.15946 11.6725 1.875 12.0303L1.15946 11.6725C1.04685 11.8977 1.04685 12.1628 1.15946 12.388L1.875 12.0303C1.15946 12.388 1.15959 12.3883 1.15974 12.3886L1.16011 12.3893L1.16109 12.3913L1.16401 12.3971L1.17375 12.4161C1.18196 12.4321 1.19362 12.4546 1.2087 12.4831C1.23886 12.54 1.28272 12.6213 1.34009 12.7233C1.45478 12.9271 1.62379 13.2147 1.84555 13.558C2.28806 14.2432 2.94578 15.1588 3.807 16.0774C4.19334 16.4895 4.62551 16.9072 5.10214 17.3069L0.939396 21.4697ZM7.47891 17.0515C8.64689 17.7566 9.99292 18.2303 11.5 18.2303C14.2429 18.2303 16.4523 16.6614 18.0257 14.9831C18.8052 14.1517 19.4052 13.3173 19.8104 12.69C19.9803 12.4269 20.115 12.2017 20.2134 12.0303C20.115 11.8589 19.9803 11.6336 19.8104 11.3705C19.4052 10.7432 18.8052 9.9088 18.0257 9.07743C17.6232 8.64808 17.1791 8.2259 16.6951 7.83532L14.37 10.1604C14.721 10.698 14.925 11.3403 14.925 12.0303C14.925 13.9218 13.3916 15.4553 11.5 15.4553C10.81 15.4553 10.1677 15.2513 9.63012 14.9003L7.47891 17.0515ZM8.58298 13.8261L6.23814 16.1709C5.77997 15.7956 5.35818 15.3926 4.97426 14.9831C4.19485 14.1517 3.59475 13.3173 3.18961 12.69C3.01969 12.4269 2.88499 12.2017 2.78658 12.0303C2.88499 11.8589 3.01969 11.6336 3.18961 11.3705C3.59475 10.7432 4.19485 9.9088 4.97426 9.07743C6.54767 7.39912 8.75711 5.83027 11.5 5.83027C12.9746 5.83027 14.295 6.28369 15.4453 6.96378L13.2958 9.11326C12.7737 8.79113 12.1585 8.60527 11.5 8.60527C9.60842 8.60527 8.075 10.1387 8.075 12.0303C8.075 12.6888 8.26086 13.304 8.58298 13.8261ZM10.81 13.7203C11.0229 13.8073 11.2558 13.8553 11.5 13.8553C12.5079 13.8553 13.325 13.0382 13.325 12.0303C13.325 11.7861 13.2771 11.5532 13.1901 11.3403L10.81 13.7203ZM12.1021 10.3069L9.77667 12.6324C9.7108 12.4439 9.675 12.2413 9.675 12.0303C9.675 11.0224 10.4921 10.2053 11.5 10.2053C11.711 10.2053 11.9136 10.2411 12.1021 10.3069Z" fill="#8F8F8F" fill-opacity="0.55"/>
</svg>
