<svg width="198" height="198" viewBox="0 0 198 198" fill="none" xmlns="http://www.w3.org/2000/svg">
<rect width="198" height="198" rx="24" fill="white"/>
<path d="M167.755 64.9586C166.133 58.8733 161.356 54.0813 155.289 52.455C144.293 49.4993 100.201 49.4993 100.201 49.4993C100.201 49.4993 56.1085 49.4993 45.1125 52.455C39.046 54.0813 34.268 58.8733 32.6466 64.9586C29.7002 75.9878 29.7002 98.9997 29.7002 98.9997C29.7002 98.9997 29.7002 122.011 32.6466 133.041C34.268 139.126 39.046 143.918 45.1125 145.545C56.1085 148.5 100.201 148.5 100.201 148.5C100.201 148.5 144.293 148.5 155.289 145.545C161.356 143.918 166.133 139.126 167.755 133.041C170.701 122.011 170.701 98.9997 170.701 98.9997C170.701 98.9997 170.701 75.9878 167.755 64.9586Z" fill="#ED1D24"/>
<path d="M85.7793 119.893L122.632 99.0006L85.7793 78.1067V119.893Z" fill="white"/>
</svg>
