<svg width="35" height="35" viewBox="0 0 35 35" fill="none" xmlns="http://www.w3.org/2000/svg">
<circle cx="17.5" cy="17.5" r="17.5" fill="#D9D9D9"/>
<path d="M18.4417 25.5C18.2952 25.7526 18.0849 25.9622 17.8319 26.1079C17.5788 26.2537 17.292 26.3304 17 26.3304C16.708 26.3304 16.4212 26.2537 16.1681 26.1079C15.9151 25.9622 15.7048 25.7526 15.5583 25.5M22 14.6667C22 13.3406 21.4732 12.0688 20.5355 11.1311C19.5979 10.1935 18.3261 9.66667 17 9.66667C15.6739 9.66667 14.4021 10.1935 13.4645 11.1311C12.5268 12.0688 12 13.3406 12 14.6667C12 20.5 9.5 22.1667 9.5 22.1667H24.5C24.5 22.1667 22 20.5 22 14.6667Z" stroke="white" stroke-width="2" stroke-linecap="round" stroke-linejoin="round"/>
</svg>
