<svg width="27" height="27" viewBox="0 0 27 27" fill="none" xmlns="http://www.w3.org/2000/svg">
<path d="M23.8196 25.7434L15.5048 17.4103C14.7624 18.0055 13.9086 18.4767 12.9435 18.8239C11.9784 19.1711 10.9514 19.3447 9.86256 19.3447C7.16519 19.3447 4.88258 18.4087 3.01471 16.5368C1.14585 14.6638 0.211426 12.3757 0.211426 9.67236C0.211426 6.96906 1.14585 4.68093 3.01471 2.80796C4.88258 0.935987 7.16519 0 9.86256 0C12.5599 0 14.843 0.935987 16.7119 2.80796C18.5798 4.68093 19.5137 6.96906 19.5137 9.67236C19.5137 10.7636 19.3405 11.7928 18.994 12.7601C18.6476 13.7273 18.1774 14.5829 17.5835 15.327L25.9354 23.6973C26.2076 23.9701 26.3437 24.3049 26.3437 24.7017C26.3437 25.0985 26.1953 25.4458 25.8983 25.7434C25.6261 26.0162 25.2796 26.1526 24.8589 26.1526C24.4383 26.1526 24.0918 26.0162 23.8196 25.7434ZM9.86256 16.3686C11.7186 16.3686 13.2964 15.7178 14.5961 14.4163C15.8948 13.1137 16.5441 11.5324 16.5441 9.67236C16.5441 7.81229 15.8948 6.23099 14.5961 4.92844C13.2964 3.62689 11.7186 2.97611 9.86256 2.97611C8.00658 2.97611 6.42874 3.62689 5.12905 4.92844C3.83035 6.23099 3.18101 7.81229 3.18101 9.67236C3.18101 11.5324 3.83035 13.1137 5.12905 14.4163C6.42874 15.7178 8.00658 16.3686 9.86256 16.3686Z" fill="black"/>
</svg>
