<svg width="40" height="40" viewBox="0 0 40 40" fill="none" xmlns="http://www.w3.org/2000/svg">
<circle cx="20" cy="20" r="20" fill="#528DFF"/>
<path d="M27.3 17.175L23.05 12.975L24.45 11.575C24.8333 11.1917 25.3043 11 25.863 11C26.421 11 26.8917 11.1917 27.275 11.575L28.675 12.975C29.0583 13.3583 29.2583 13.821 29.275 14.363C29.2917 14.9043 29.1083 15.3667 28.725 15.75L27.3 17.175ZM12 29.25C11.7167 29.25 11.4793 29.154 11.288 28.962C11.096 28.7707 11 28.5333 11 28.25V25.425C11 25.2917 11.025 25.1627 11.075 25.038C11.125 24.9127 11.2 24.8 11.3 24.7L21.6 14.4L25.85 18.65L15.55 28.95C15.45 29.05 15.3377 29.125 15.213 29.175C15.0877 29.225 14.9583 29.25 14.825 29.25H12Z" fill="white"/>
</svg>
