<svg width="393" height="852" viewBox="0 0 393 852" fill="none" xmlns="http://www.w3.org/2000/svg">
<g clip-path="url(#clip0_426_959)">
<rect width="393" height="852" fill="url(#paint0_linear_426_959)"/>
<rect x="-7.1095" y="446" width="105.045" height="52" rx="26" transform="rotate(50.0964 -7.1095 446)" fill="white" fill-opacity="0.3"/>
<rect x="195.891" y="652" width="95.7212" height="52" rx="26" transform="rotate(50.0964 195.891 652)" fill="white" fill-opacity="0.2"/>
<rect x="130.525" y="751" width="61.0901" height="33.2742" rx="16.6371" transform="rotate(50.0964 130.525 751)" fill="white" fill-opacity="0.1"/>
<rect x="383.526" y="445" width="74.227" height="33.2742" rx="16.6371" transform="rotate(50.0964 383.526 445)" fill="white" fill-opacity="0.1"/>
<rect x="373.891" y="228" width="116" height="52" rx="26" transform="rotate(50.0964 373.891 228)" fill="white" fill-opacity="0.3"/>
<path d="M113.541 400.136C148.634 370.79 200.872 375.448 230.218 410.541L333.931 534.564C363.277 569.657 358.618 621.895 323.525 651.241C288.432 680.587 236.194 675.928 206.848 640.835L103.136 516.813C73.7896 481.72 78.4485 429.482 113.541 400.136Z" fill="url(#paint1_linear_426_959)"/>
<rect x="141.281" y="143" width="330.578" height="167.222" rx="83.6112" transform="rotate(50.0964 141.281 143)" fill="url(#paint2_linear_426_959)"/>
<g filter="url(#filter0_i_426_959)">
<path fill-rule="evenodd" clip-rule="evenodd" d="M273.331 462.682C239.337 480.131 196.612 472.428 171.07 441.883L128 390.378C161.766 372.723 204.417 380.271 229.86 410.697L273.331 462.682Z" fill="#CFFF46" fill-opacity="0.8"/>
</g>
</g>
<defs>
<filter id="filter0_i_426_959" x="128" y="381" width="145.331" height="94.8594" filterUnits="userSpaceOnUse" color-interpolation-filters="sRGB">
<feFlood flood-opacity="0" result="BackgroundImageFix"/>
<feBlend mode="normal" in="SourceGraphic" in2="BackgroundImageFix" result="shape"/>
<feColorMatrix in="SourceAlpha" type="matrix" values="0 0 0 0 0 0 0 0 0 0 0 0 0 0 0 0 0 0 127 0" result="hardAlpha"/>
<feOffset dy="6"/>
<feGaussianBlur stdDeviation="2"/>
<feComposite in2="hardAlpha" operator="arithmetic" k2="-1" k3="1"/>
<feColorMatrix type="matrix" values="0 0 0 0 0.467081 0 0 0 0 0.630729 0 0 0 0 0 0 0 0 1 0"/>
<feBlend mode="normal" in2="shape" result="effect1_innerShadow_426_959"/>
</filter>
<linearGradient id="paint0_linear_426_959" x1="196.5" y1="-6.87342e-09" x2="196" y2="1688.5" gradientUnits="userSpaceOnUse">
<stop stop-color="#528DFF"/>
<stop offset="1" stop-color="#13264A"/>
</linearGradient>
<linearGradient id="paint1_linear_426_959" x1="83.1242" y1="343.636" x2="293.108" y2="594.741" gradientUnits="userSpaceOnUse">
<stop stop-color="white" stop-opacity="0.6"/>
<stop offset="1" stop-color="#528DFF" stop-opacity="0"/>
</linearGradient>
<linearGradient id="paint2_linear_426_959" x1="253.54" y1="54.7419" x2="471.858" y2="226.611" gradientUnits="userSpaceOnUse">
<stop stop-color="#528DFF" stop-opacity="0"/>
<stop offset="0.31" stop-color="#8BB3FF" stop-opacity="0"/>
<stop offset="1" stop-color="white" stop-opacity="0.6"/>
</linearGradient>
<clipPath id="clip0_426_959">
<rect width="393" height="852" fill="white"/>
</clipPath>
</defs>
</svg>
