<svg width="88" height="84" viewBox="0 0 88 84" fill="none" xmlns="http://www.w3.org/2000/svg">
<rect width="88" height="83.8933" rx="27" fill="#528DFF"/>
<rect x="8.51752" y="47.2474" width="66.8747" height="26.7684" rx="13.3842" transform="rotate(-29.4783 8.51752 47.2474)" fill="white" fill-opacity="0.3"/>
<rect x="7.62665" y="36.9161" width="67.457" height="30.0822" rx="15.0411" transform="rotate(-15.5148 7.62665 36.9161)" fill="#CFFF46" fill-opacity="0.8"/>
<rect x="10.5028" y="27.5075" width="67.5767" height="29.4565" rx="14.7283" fill="white"/>
<path d="M32.9031 40.9325C32.8683 40.5506 32.7138 40.2537 32.4395 40.0419C32.1687 39.8266 31.7815 39.719 31.2781 39.719C30.9447 39.719 30.6669 39.7624 30.4447 39.8492C30.2225 39.936 30.0558 40.0558 29.9447 40.2086C29.8336 40.3579 29.7763 40.5297 29.7728 40.7242C29.7659 40.8839 29.7972 41.0245 29.8666 41.1461C29.9395 41.2676 30.0437 41.3752 30.1791 41.469C30.318 41.5593 30.4847 41.6391 30.6791 41.7086C30.8735 41.778 31.0923 41.8388 31.3353 41.8909L32.252 42.0992C32.7798 42.2138 33.2451 42.3666 33.6478 42.5575C34.0541 42.7485 34.3944 42.9759 34.6687 43.2398C34.9465 43.5037 35.1565 43.8075 35.2989 44.1513C35.4412 44.495 35.5142 44.8804 35.5176 45.3075C35.5142 45.9811 35.344 46.5593 35.0072 47.0419C34.6704 47.5245 34.186 47.8943 33.5541 48.1513C32.9256 48.4082 32.1669 48.5367 31.2781 48.5367C30.3857 48.5367 29.6079 48.403 28.9447 48.1357C28.2815 47.8683 27.7659 47.462 27.3978 46.9169C27.0298 46.3718 26.8406 45.6825 26.8301 44.8492H29.2989C29.3197 45.1929 29.4117 45.4794 29.5749 45.7086C29.7381 45.9377 29.9621 46.1113 30.2468 46.2294C30.535 46.3475 30.8683 46.4065 31.2468 46.4065C31.594 46.4065 31.8892 46.3596 32.1322 46.2659C32.3788 46.1721 32.568 46.0419 32.6999 45.8752C32.8319 45.7086 32.8996 45.5176 32.9031 45.3023C32.8996 45.1009 32.8371 44.9291 32.7156 44.7867C32.594 44.6409 32.4065 44.5159 32.1531 44.4117C31.9031 44.3041 31.5836 44.2051 31.1947 44.1148L30.0801 43.8544C29.1565 43.6426 28.4291 43.3006 27.8978 42.8284C27.3666 42.3527 27.1027 41.7103 27.1062 40.9013C27.1027 40.2416 27.2798 39.6634 27.6374 39.1669C27.9951 38.6704 28.4899 38.2832 29.1218 38.0054C29.7538 37.7277 30.4742 37.5888 31.2833 37.5888C32.1097 37.5888 32.8267 37.7294 33.4343 38.0107C34.0454 38.2884 34.5194 38.6791 34.8562 39.1825C35.193 39.686 35.3649 40.2693 35.3718 40.9325H32.9031Z" fill="#528DFF"/>
<path d="M46.4239 37.7346H48.9968V44.6148C48.9968 45.41 48.8076 46.1027 48.4291 46.6929C48.0506 47.2797 47.5228 47.7346 46.8458 48.0575C46.1687 48.377 45.3822 48.5367 44.4864 48.5367C43.5801 48.5367 42.7885 48.377 42.1114 48.0575C41.4343 47.7346 40.9083 47.2797 40.5333 46.6929C40.1583 46.1027 39.9708 45.41 39.9708 44.6148V37.7346H42.5489V44.3909C42.5489 44.7589 42.6287 45.087 42.7885 45.3752C42.9517 45.6634 43.1791 45.8891 43.4708 46.0523C43.7624 46.2155 44.101 46.2971 44.4864 46.2971C44.8718 46.2971 45.2086 46.2155 45.4968 46.0523C45.7885 45.8891 46.0159 45.6634 46.1791 45.3752C46.3423 45.087 46.4239 44.7589 46.4239 44.3909V37.7346Z" fill="#528DFF"/>
<path d="M53.7637 48.4013V37.7346H58.2116C59.0103 37.7346 59.6787 37.8475 60.2169 38.0732C60.7585 38.2988 61.1648 38.6148 61.4356 39.0211C61.7099 39.4273 61.8471 39.8978 61.8471 40.4325C61.8471 40.8388 61.762 41.2016 61.5919 41.5211C61.4217 41.837 61.1873 42.0992 60.8887 42.3075C60.5901 42.5159 60.2446 42.6617 59.8523 42.745V42.8492C60.2828 42.87 60.6804 42.9863 61.045 43.1982C61.413 43.41 61.7082 43.7051 61.9304 44.0836C62.1526 44.4586 62.2637 44.903 62.2637 45.4169C62.2637 45.9898 62.1179 46.502 61.8262 46.9534C61.5346 47.4013 61.1127 47.7554 60.5606 48.0159C60.0085 48.2728 59.3384 48.4013 58.5502 48.4013H53.7637ZM56.3419 46.3232H57.9356C58.4946 46.3232 58.9061 46.2172 59.17 46.0054C59.4373 45.7936 59.571 45.4985 59.571 45.12C59.571 44.8457 59.5068 44.6096 59.3783 44.4117C59.2498 44.2103 59.0676 44.0558 58.8314 43.9482C58.5953 43.837 58.3123 43.7815 57.9825 43.7815H56.3419V46.3232ZM56.3419 42.12H57.7689C58.0502 42.12 58.3002 42.0732 58.5189 41.9794C58.7377 41.8857 58.9078 41.7502 59.0294 41.5732C59.1544 41.3961 59.2169 41.1825 59.2169 40.9325C59.2169 40.5749 59.0901 40.2936 58.8366 40.0888C58.5832 39.8839 58.2412 39.7815 57.8106 39.7815H56.3419V42.12Z" fill="#528DFF"/>
</svg>
